<?xml version="1.0" encoding="UTF-8"?>
<svg viewBox="0 0 1024 1024" xmlns="http://www.w3.org/2000/svg" width="13" height="13">
  <path
    d="M812.2 65H351.6c-78.3 0-142.5 61.1-147.7 138.1-77 5.1-138.1 69.4-138.1 147.7v460.6c0 81.6 66.4 148 148 148h460.6c78.3 0 142.5-61.1 147.7-138.1 77-5.1 138.1-69.4 138.1-147.7V213c0-81.6-66.4-148-148-148z m-45.8 746.3c0 50.7-41.3 92-92 92H213.8c-50.7 0-92-41.3-92-92V350.7c0-50.7 41.3-92 92-92h460.6c50.7 0 92 41.3 92 92v460.6z m137.8-137.7c0 47.3-35.8 86.3-81.8 91.4V350.7c0-81.6-66.4-148-148-148H260.2c5.1-45.9 44.2-81.8 91.4-81.8h460.6c50.7 0 92 41.3 92 92v460.7z"
    fill="currentColor" />
</svg>