<svg xmlns="http://www.w3.org/2000/svg" width="15" height="15" viewBox="0 0 24 24"><path fill="currentColor" d="M2 12.124C2 6.533 6.477 2 12 2s10 4.533 10 10.124v5.243c0 .817 0 1.378-.143 1.87a3.52 3.52 0 0 1-1.847 2.188c-.458.22-1.004.307-1.801.434l-.13.02a13.35 13.35 0 0 1-.727.105c-.209.02-.422.027-.64-.016a2.1 2.1 0 0 1-1.561-1.35a2.23 2.23 0 0 1-.116-.639c-.012-.204-.012-.452-.012-.742v-4.173c0-.425 0-.791.097-1.105a2.103 2.103 0 0 1 1.528-1.43c.316-.073.677-.044 1.096-.01l.093.007l.11.01c.783.062 1.32.104 1.775.275c.32.12.616.284.883.487v-1.174c0-4.811-3.853-8.711-8.605-8.711c-4.752 0-8.605 3.9-8.605 8.711v1.174c.267-.203.563-.368.883-.487c.455-.17.992-.213 1.775-.276l.11-.009l.093-.007c.42-.034.78-.063 1.096.01a2.103 2.103 0 0 1 1.528 1.43c.098.314.097.68.097 1.105v4.172c0 .291 0 .54-.012.743c-.012.213-.04.427-.116.638a2.1 2.1 0 0 1-1.56 1.35a2.148 2.148 0 0 1-.641.017c-.201-.02-.444-.059-.727-.104l-.13-.02c-.797-.128-1.344-.215-1.801-.436a3.52 3.52 0 0 1-1.847-2.188c-.118-.405-.139-.857-.142-1.461L2 17.58z"/><path fill="currentColor" fill-rule="evenodd" d="M12 5.75a.75.75 0 0 1 .75.75v5a.75.75 0 1 1-1.5 0v-5a.75.75 0 0 1 .75-.75m3 1.5a.75.75 0 0 1 .75.75v2a.75.75 0 1 1-1.5 0V8a.75.75 0 0 1 .75-.75m-6 0a.75.75 0 0 1 .75.75v2a.75.75 0 0 1-1.5 0V8A.75.75 0 0 1 9 7.25" clip-rule="evenodd"/></svg>