<?xml version="1.0" standalone="no"?>
<!DOCTYPE svg PUBLIC "-//W3C//DTD SVG 1.1//EN" "http://www.w3.org/Graphics/SVG/1.1/DTD/svg11.dtd">
<svg t="1711636245967"
  class="icon" viewBox="0 0 1024 1024" version="1.1" xmlns="http://www.w3.org/2000/svg" p-id="1513"
  xmlns:xlink="http://www.w3.org/1999/xlink" width="20" height="20">
  <path
    d="M800 96a32 32 0 0 1 32 32v743.488a32 32 0 0 1-48.448 27.424L512 736l-271.552 162.912A32 32 0 0 1 192 871.488V128a32 32 0 0 1 32-32h576z m-280.928 117.792a16 16 0 0 0-19.904 4.8l-1.504 2.464-51.52 104.32-115.104 16.736a16 16 0 0 0-10.752 25.12l1.92 2.176 83.264 81.216-19.648 114.656a16 16 0 0 0 20.544 17.952l2.656-1.088L512 528l102.976 54.144a16 16 0 0 0 23.424-13.984l-0.224-2.88-19.648-114.656 83.296-81.216a16 16 0 0 0-6.08-26.624l-2.784-0.64-115.136-16.768-51.488-104.32a16 16 0 0 0-7.264-7.264z"
    fill="#B19C4A" p-id="1514"></path>
</svg>